<svg xmlns="http://www.w3.org/2000/svg" viewBox="0 0 122 122" width="122" height="122" role="img" aria-label="ДА monogram">
  <circle cx="61" cy="61" r="58" fill="#E6DCC3"/>
  <g fill="none" stroke="#7A2A22" stroke-width="4"><circle cx="61" cy="61" r="56"/><circle cx="61" cy="61" r="49" stroke-width="2" opacity=".45"/></g>
  <g fill="none" stroke="#B5781C" stroke-width="4" stroke-linecap="round"><path d="M61 18 C56 13 56 6 61 2 C66 6 66 13 61 18Z"/><path d="M61 19 C54 17 49 11 51 5 C56 8 60 13 61 19"/><path d="M61 19 C68 17 73 11 71 5 C66 8 62 13 61 19"/></g>
  <g fill="#7A2A22"><circle cx="12" cy="61" r="4.5"/><circle cx="110" cy="61" r="4.5"/><circle cx="61" cy="110" r="4.5"/></g>
  <g fill="#7A2A22"><g transform="translate(13.51 82.16) scale(0.0692 -0.0692)"><path d="M496 665V625H442Q449 553 474.0 413.0Q499 273 527 165Q559 41 579 41Q585 41 594.0 46.5Q603 52 622 52Q635 52 642.5 42.5Q650 33 650 20Q650 13 648.5 8.5Q647 4 637.0 -21.5Q627 -47 617 -90Q609 -141 608 -144Q600 -169 581 -169Q565 -169 559.5 -157.5Q554 -146 552 -127Q539 -43 488 -16Q458 0 391 0H293Q193 0 160.0 -20.0Q127 -40 111 -105Q105 -125 100 -146Q90 -169 73 -169Q58 -169 51 -152Q48 -145 45.0 -120.5Q42 -96 35.0 -65.5Q28 -35 17 -11Q13 0 10.0 8.0Q7 16 7 24Q7 39 19.0 45.5Q31 52 44 52Q51 52 62.0 50.0Q73 48 79 48Q99 48 106 72Q109 81 114 119Q125 205 164 300Q192 368 237 444Q261 484 272 509Q290 550 290 582Q290 605 275.5 615.0Q261 625 234 625H182V665ZM247 40H413L394 111Q373 186 355.0 264.0Q337 342 324 417L314 469Q251 389 207 270Q167 163 167 102Q167 64 184.0 52.0Q201 40 247 40Z"/></g><g transform="translate(63.11 82.16) scale(0.0692 -0.0692)"><path d="M262 638H189V678H484V638H410L584 40H650V0H365V40H437L366 286Q342 176 285 89Q217 -14 141 -14Q95 -14 67 12Q34 43 34 101Q34 177 77 272Q110 344 180 451Q209 494 238 537Q264 581 264 617Q264 624 262 638ZM121 167Q121 136 136.0 120.0Q151 104 173 104Q200 104 217 125Q249 166 284 226Q332 308 338 355L295 527Q263 483 231 440Q204 402 188 372Q168 336 146 274Q121 203 121 167Z"/></g></g>
</svg>