<svg class="hero-art" viewBox="0 0 1280 700" fill="none" preserveAspectRatio="xMidYMid slice" aria-hidden="true" xmlns="http://www.w3.org/2000/svg"><defs><filter id="hw" x="-15%" y="-30%" width="130%" height="160%"><feGaussianBlur stdDeviation="11"/></filter></defs><path d="M -60.0 690.0 L -51.5 685.3 L -41.6 679.8 L -30.3 673.6 L -17.8 666.7 L -4.3 659.2 L 10.2 651.2 L 25.6 642.7 L 41.7 633.8 L 58.4 624.5 L 75.6 615.0 L 93.2 605.3 L 111.1 595.4 L 129.2 585.5 L 147.2 575.6 L 165.2 565.8 L 183.0 556.1 L 200.5 546.6 L 217.6 537.4 L 234.1 528.5 L 250.0 520.0 L 265.5 511.7 L 281.1 503.1 L 296.8 494.5 L 312.5 485.8 L 328.2 477.0 L 343.9 468.1 L 359.7 459.3 L 375.4 450.5 L 391.2 441.8 L 406.9 433.1 L 422.5 424.6 L 438.2 416.3 L 453.7 408.2 L 469.2 400.3 L 484.6 392.7 L 499.9 385.4 L 515.1 378.5 L 530.2 371.9 L 545.2 365.7 L 560.0 360.0 L 574.7 354.5 L 589.4 349.1 L 604.0 343.9 L 618.6 338.7 L 633.0 333.8 L 647.5 329.0 L 661.8 324.4 L 676.1 320.2 L 690.3 316.2 L 704.4 312.5 L 718.4 309.2 L 732.3 306.2 L 746.2 303.7 L 759.9 301.6 L 773.5 300.0 L 787.0 298.9 L 800.5 298.3 L 813.8 298.3 L 826.9 298.8 L 840.0 300.0 L 852.9 301.7 L 865.4 303.7 L 877.8 306.1 L 889.9 309.0 L 901.9 312.2 L 913.7 315.8 L 925.4 319.9 L 937.0 324.5 L 948.5 329.5 L 960.0 335.0 L 971.5 341.0 L 983.0 347.5 L 994.6 354.6 L 1006.3 362.2 L 1018.1 370.3 L 1030.1 379.0 L 1042.2 388.4 L 1054.6 398.3 L 1067.1 408.8 L 1080.0 420.0 L 1093.4 432.4 L 1107.6 446.6 L 1122.5 462.3 L 1137.9 479.4 L 1153.8 497.5 L 1169.9 516.5 L 1186.2 536.3 L 1202.6 556.5 L 1218.9 577.0 L 1235.0 597.5 L 1250.8 617.9 L 1266.2 637.9 L 1281.1 657.4 L 1295.3 676.1 L 1308.8 693.8 L 1321.3 710.2 L 1332.8 725.3 L 1343.2 738.8 L 1352.3 750.4 L 1360.0 760.0" stroke="#7A2A22" stroke-width="40" opacity="0.20" filter="url(#hw)"/><path d="M -60.0 690.0 L -51.5 685.3 L -41.6 679.8 L -30.3 673.6 L -17.8 666.7 L -4.3 659.2 L 10.2 651.2 L 25.6 642.7 L 41.7 633.8 L 58.4 624.5 L 75.6 615.0 L 93.2 605.3 L 111.1 595.4 L 129.2 585.5 L 147.2 575.6 L 165.2 565.8 L 183.0 556.1 L 200.5 546.6 L 217.6 537.4 L 234.1 528.5 L 250.0 520.0 L 265.5 511.7 L 281.1 503.1 L 296.8 494.5 L 312.5 485.8 L 328.2 477.0 L 343.9 468.1 L 359.7 459.3 L 375.4 450.5 L 391.2 441.8 L 406.9 433.1 L 422.5 424.6 L 438.2 416.3 L 453.7 408.2 L 469.2 400.3 L 484.6 392.7 L 499.9 385.4 L 515.1 378.5 L 530.2 371.9 L 545.2 365.7 L 560.0 360.0 L 574.7 354.5 L 589.4 349.1 L 604.0 343.9 L 618.6 338.7 L 633.0 333.8 L 647.5 329.0 L 661.8 324.4 L 676.1 320.2 L 690.3 316.2 L 704.4 312.5 L 718.4 309.2 L 732.3 306.2 L 746.2 303.7 L 759.9 301.6 L 773.5 300.0 L 787.0 298.9 L 800.5 298.3 L 813.8 298.3 L 826.9 298.8 L 840.0 300.0 L 852.9 301.7 L 865.4 303.7 L 877.8 306.1 L 889.9 309.0 L 901.9 312.2 L 913.7 315.8 L 925.4 319.9 L 937.0 324.5 L 948.5 329.5 L 960.0 335.0 L 971.5 341.0 L 983.0 347.5 L 994.6 354.6 L 1006.3 362.2 L 1018.1 370.3 L 1030.1 379.0 L 1042.2 388.4 L 1054.6 398.3 L 1067.1 408.8 L 1080.0 420.0 L 1093.4 432.4 L 1107.6 446.6 L 1122.5 462.3 L 1137.9 479.4 L 1153.8 497.5 L 1169.9 516.5 L 1186.2 536.3 L 1202.6 556.5 L 1218.9 577.0 L 1235.0 597.5 L 1250.8 617.9 L 1266.2 637.9 L 1281.1 657.4 L 1295.3 676.1 L 1308.8 693.8 L 1321.3 710.2 L 1332.8 725.3 L 1343.2 738.8 L 1352.3 750.4 L 1360.0 760.0" stroke="#B5781C" stroke-width="20" opacity="0.18" filter="url(#hw)"/><path d="M -71.6 669.0 L -63.1 664.3 L -53.2 658.8 L -41.9 652.6 L -29.5 645.7 L -15.9 638.2 L -1.4 630.2 L 14.0 621.7 L 30.1 612.8 L 46.8 603.5 L 64.0 594.0 L 81.7 584.3 L 99.6 574.4 L 117.6 564.5 L 135.7 554.6 L 153.7 544.7 L 171.6 535.0 L 189.1 525.5 L 206.2 516.2 L 222.8 507.3 L 238.7 498.8 L 254.1 490.5 L 269.6 482.1 L 285.1 473.5 L 300.8 464.8 L 316.5 456.0 L 332.2 447.2 L 348.0 438.3 L 363.8 429.5 L 379.6 420.7 L 395.4 412.1 L 411.2 403.5 L 427.0 395.1 L 442.7 386.9 L 458.5 378.9 L 474.1 371.1 L 489.8 363.7 L 505.3 356.6 L 520.8 349.8 L 536.3 343.4 L 551.5 337.6 L 566.4 332.0 L 581.2 326.6 L 595.9 321.3 L 610.7 316.1 L 625.4 311.0 L 640.1 306.1 L 654.7 301.5 L 669.4 297.1 L 684.0 293.0 L 698.6 289.2 L 713.1 285.8 L 727.7 282.7 L 742.2 280.0 L 756.7 277.8 L 771.1 276.1 L 785.5 274.9 L 799.9 274.3 L 814.2 274.3 L 828.5 274.9 L 842.6 276.1 L 856.3 277.9 L 869.7 280.1 L 882.8 282.7 L 895.8 285.7 L 908.6 289.1 L 921.2 293.0 L 933.7 297.4 L 946.1 302.3 L 958.5 307.7 L 970.7 313.5 L 983.0 319.9 L 995.2 326.8 L 1007.4 334.3 L 1019.7 342.2 L 1032.0 350.7 L 1044.5 359.8 L 1057.0 369.5 L 1069.8 379.7 L 1082.7 390.6 L 1096.0 402.1 L 1110.1 415.2 L 1124.8 429.9 L 1140.1 446.0 L 1155.9 463.4 L 1172.0 481.9 L 1188.3 501.1 L 1204.8 521.1 L 1221.3 541.5 L 1237.7 562.1 L 1253.9 582.7 L 1269.8 603.2 L 1285.3 623.3 L 1300.2 642.8 L 1314.4 661.5 L 1327.9 679.2 L 1340.4 695.7 L 1351.8 710.7 L 1362.1 724.1 L 1371.1 735.5 L 1378.7 744.9" stroke="#7A2A22" stroke-width="3" opacity="0.42" stroke-linecap="round"/><path d="M -66.3 678.6 L -57.8 673.9 L -47.8 668.5 L -36.6 662.2 L -24.1 655.3 L -10.6 647.8 L 3.9 639.8 L 19.3 631.3 L 35.4 622.4 L 52.1 613.1 L 69.3 603.6 L 87.0 593.9 L 104.9 584.0 L 122.9 574.1 L 141.0 564.2 L 159.0 554.4 L 176.8 544.7 L 194.3 535.2 L 211.4 525.9 L 228.0 517.0 L 243.9 508.5 L 259.3 500.2 L 274.9 491.7 L 290.5 483.1 L 306.1 474.4 L 321.8 465.6 L 337.6 456.8 L 353.3 447.9 L 369.1 439.1 L 384.9 430.4 L 400.6 421.7 L 416.4 413.2 L 432.1 404.8 L 447.8 396.7 L 463.4 388.7 L 478.9 381.0 L 494.4 373.7 L 509.8 366.6 L 525.1 359.9 L 540.4 353.7 L 555.4 347.8 L 570.2 342.3 L 584.9 336.9 L 599.6 331.6 L 614.3 326.4 L 628.9 321.4 L 643.5 316.6 L 658.0 312.0 L 672.5 307.7 L 686.9 303.6 L 701.2 299.9 L 715.6 296.5 L 729.8 293.5 L 744.0 290.9 L 758.1 288.7 L 772.2 287.1 L 786.2 285.9 L 800.2 285.3 L 814.0 285.3 L 827.8 285.8 L 841.4 287.1 L 854.7 288.8 L 867.7 290.9 L 880.5 293.4 L 893.1 296.4 L 905.5 299.7 L 917.8 303.5 L 929.9 307.7 L 941.9 312.5 L 953.9 317.7 L 965.8 323.4 L 977.7 329.6 L 989.6 336.3 L 1001.6 343.6 L 1013.6 351.4 L 1025.7 359.7 L 1037.9 368.6 L 1050.2 378.1 L 1062.8 388.2 L 1075.6 398.9 L 1088.7 410.3 L 1102.4 423.1 L 1117.0 437.6 L 1132.1 453.5 L 1147.6 470.7 L 1163.6 489.0 L 1179.9 508.2 L 1196.3 528.0 L 1212.7 548.3 L 1229.1 568.9 L 1245.2 589.5 L 1261.1 609.9 L 1276.6 630.0 L 1291.4 649.5 L 1305.7 668.2 L 1319.1 685.9 L 1331.6 702.4 L 1343.1 717.4 L 1353.4 730.8 L 1362.5 742.3 L 1370.1 751.8" stroke="#7A2A22" stroke-width="4" opacity="0.7" stroke-linecap="round"/><path d="M -60.0 690.0 L -51.5 685.3 L -41.6 679.8 L -30.3 673.6 L -17.8 666.7 L -4.3 659.2 L 10.2 651.2 L 25.6 642.7 L 41.7 633.8 L 58.4 624.5 L 75.6 615.0 L 93.2 605.3 L 111.1 595.4 L 129.2 585.5 L 147.2 575.6 L 165.2 565.8 L 183.0 556.1 L 200.5 546.6 L 217.6 537.4 L 234.1 528.5 L 250.0 520.0 L 265.5 511.7 L 281.1 503.1 L 296.8 494.5 L 312.5 485.8 L 328.2 477.0 L 343.9 468.1 L 359.7 459.3 L 375.4 450.5 L 391.2 441.8 L 406.9 433.1 L 422.5 424.6 L 438.2 416.3 L 453.7 408.2 L 469.2 400.3 L 484.6 392.7 L 499.9 385.4 L 515.1 378.5 L 530.2 371.9 L 545.2 365.7 L 560.0 360.0 L 574.7 354.5 L 589.4 349.1 L 604.0 343.9 L 618.6 338.7 L 633.0 333.8 L 647.5 329.0 L 661.8 324.4 L 676.1 320.2 L 690.3 316.2 L 704.4 312.5 L 718.4 309.2 L 732.3 306.2 L 746.2 303.7 L 759.9 301.6 L 773.5 300.0 L 787.0 298.9 L 800.5 298.3 L 813.8 298.3 L 826.9 298.8 L 840.0 300.0 L 852.9 301.7 L 865.4 303.7 L 877.8 306.1 L 889.9 309.0 L 901.9 312.2 L 913.7 315.8 L 925.4 319.9 L 937.0 324.5 L 948.5 329.5 L 960.0 335.0 L 971.5 341.0 L 983.0 347.5 L 994.6 354.6 L 1006.3 362.2 L 1018.1 370.3 L 1030.1 379.0 L 1042.2 388.4 L 1054.6 398.3 L 1067.1 408.8 L 1080.0 420.0 L 1093.4 432.4 L 1107.6 446.6 L 1122.5 462.3 L 1137.9 479.4 L 1153.8 497.5 L 1169.9 516.5 L 1186.2 536.3 L 1202.6 556.5 L 1218.9 577.0 L 1235.0 597.5 L 1250.8 617.9 L 1266.2 637.9 L 1281.1 657.4 L 1295.3 676.1 L 1308.8 693.8 L 1321.3 710.2 L 1332.8 725.3 L 1343.2 738.8 L 1352.3 750.4 L 1360.0 760.0" stroke="#B5781C" stroke-width="5" opacity="1.0" stroke-linecap="round"/><path d="M -54.2 700.5 L -45.7 695.8 L -35.8 690.3 L -24.5 684.1 L -12.0 677.2 L 1.5 669.7 L 16.0 661.7 L 31.4 653.2 L 47.5 644.3 L 64.2 635.0 L 81.4 625.5 L 99.0 615.8 L 116.9 606.0 L 134.9 596.0 L 153.0 586.1 L 171.0 576.3 L 188.8 566.6 L 206.3 557.1 L 223.3 547.9 L 239.8 539.1 L 255.7 530.6 L 271.2 522.2 L 286.9 513.7 L 302.6 505.0 L 318.3 496.2 L 334.1 487.4 L 349.8 478.6 L 365.6 469.7 L 381.3 461.0 L 397.0 452.3 L 412.6 443.7 L 428.2 435.2 L 443.8 426.9 L 459.2 418.9 L 474.6 411.1 L 489.8 403.5 L 505.0 396.3 L 520.0 389.4 L 534.9 383.0 L 549.6 376.9 L 564.3 371.2 L 578.9 365.8 L 593.5 360.4 L 608.0 355.2 L 622.5 350.1 L 636.9 345.1 L 651.2 340.4 L 665.3 335.9 L 679.4 331.7 L 693.4 327.8 L 707.3 324.1 L 721.0 320.9 L 734.6 318.0 L 748.1 315.5 L 761.5 313.5 L 774.7 311.9 L 787.8 310.9 L 800.7 310.3 L 813.5 310.3 L 826.1 310.8 L 838.7 311.9 L 851.1 313.6 L 863.3 315.5 L 875.3 317.9 L 887.0 320.6 L 898.5 323.7 L 909.9 327.2 L 921.2 331.2 L 932.4 335.6 L 943.5 340.4 L 954.6 345.7 L 965.8 351.5 L 977.0 357.9 L 988.2 364.7 L 999.6 372.1 L 1011.2 380.1 L 1022.9 388.6 L 1034.8 397.8 L 1046.9 407.6 L 1059.4 417.9 L 1072.0 428.9 L 1085.1 441.1 L 1099.0 455.0 L 1113.7 470.5 L 1128.9 487.3 L 1144.6 505.3 L 1160.7 524.2 L 1176.9 543.9 L 1193.2 564.0 L 1209.5 584.4 L 1225.5 604.9 L 1241.3 625.2 L 1256.7 645.2 L 1271.6 664.7 L 1285.8 683.3 L 1299.2 701.0 L 1311.7 717.5 L 1323.3 732.6 L 1333.7 746.1 L 1342.9 757.9 L 1350.7 767.5" stroke="#7A2A22" stroke-width="4" opacity="0.7" stroke-linecap="round"/><path d="M -48.9 710.2 L -40.4 705.5 L -30.4 700.0 L -19.2 693.7 L -6.7 686.8 L 6.8 679.3 L 21.4 671.3 L 36.7 662.8 L 52.8 653.9 L 69.5 644.6 L 86.7 635.1 L 104.3 625.4 L 122.2 615.6 L 140.2 605.7 L 158.3 595.8 L 176.3 586.0 L 194.0 576.3 L 211.5 566.8 L 228.5 557.6 L 245.0 548.7 L 260.9 540.3 L 276.5 531.9 L 292.2 523.3 L 307.9 514.6 L 323.7 505.8 L 339.5 497.0 L 355.2 488.2 L 370.9 479.3 L 386.6 470.6 L 402.3 461.9 L 417.9 453.3 L 433.4 444.9 L 448.9 436.7 L 464.2 428.7 L 479.5 420.9 L 494.6 413.4 L 509.7 406.3 L 524.5 399.5 L 539.2 393.1 L 553.7 387.1 L 568.2 381.5 L 582.7 376.1 L 597.3 370.8 L 611.7 365.5 L 626.1 360.4 L 640.4 355.5 L 654.5 350.9 L 668.6 346.4 L 682.5 342.2 L 696.3 338.4 L 709.9 334.8 L 723.4 331.6 L 736.8 328.8 L 750.0 326.4 L 763.0 324.4 L 775.8 322.9 L 788.5 321.8 L 801.0 321.3 L 813.3 321.3 L 825.4 321.8 L 837.5 322.9 L 849.5 324.4 L 861.4 326.4 L 873.0 328.6 L 884.3 331.3 L 895.5 334.3 L 906.5 337.7 L 917.4 341.5 L 928.2 345.7 L 938.9 350.4 L 949.7 355.6 L 960.5 361.2 L 971.4 367.4 L 982.4 374.0 L 993.5 381.3 L 1004.8 389.1 L 1016.3 397.4 L 1028.0 406.4 L 1040.0 416.1 L 1052.2 426.3 L 1064.6 437.1 L 1077.5 449.0 L 1091.2 462.7 L 1105.6 477.9 L 1120.7 494.6 L 1136.3 512.5 L 1152.2 531.3 L 1168.4 550.8 L 1184.6 570.9 L 1200.8 591.2 L 1216.9 611.7 L 1232.6 632.0 L 1248.0 651.9 L 1262.8 671.3 L 1277.0 690.0 L 1290.4 707.7 L 1303.0 724.2 L 1314.5 739.3 L 1325.0 752.9 L 1334.3 764.7 L 1342.1 774.4" stroke="#7A2A22" stroke-width="3" opacity="0.42" stroke-linecap="round"/><path d="M -61.9 686.5 L -53.4 681.8 L -43.5 676.3 L -32.2 670.1 L -19.8 663.2 L -6.2 655.7 L 8.3 647.7 L 23.6 639.2 L 39.7 630.3 L 56.5 621.0 L 73.7 611.5 L 91.3 601.8 L 109.2 591.9 L 127.2 582.0 L 145.3 572.1 L 163.3 562.3 L 181.1 552.6 L 198.6 543.1 L 215.7 533.8 L 232.2 525.0 L 248.1 516.5 L 263.6 508.1 L 279.2 499.6 L 294.8 491.0 L 310.5 482.3 L 326.2 473.5 L 342.0 464.6 L 357.7 455.8 L 373.5 447.0 L 389.2 438.2 L 405.0 429.6 L 420.6 421.1 L 436.3 412.8 L 451.9 404.7 L 467.4 396.8 L 482.9 389.1 L 498.2 381.8 L 513.5 374.8 L 528.7 368.2 L 543.7 362.0 L 558.6 356.3 L 573.3 350.8 L 588.0 345.4 L 602.7 340.1 L 617.2 334.9 L 631.8 330.0 L 646.2 325.2 L 660.6 320.6 L 675.0 316.3 L 689.2 312.3 L 703.4 308.6 L 717.5 305.3 L 731.5 302.3 L 745.5 299.8 L 759.3 297.7 L 773.1 296.0 L 786.8 294.9 L 800.4 294.3 L 813.8 294.3 L 827.2 294.8 L 840.4 296.0 L 853.4 297.7 L 866.1 299.8 L 878.6 302.2 L 890.9 305.1 L 903.0 308.3 L 914.9 312.0 L 926.8 316.2 L 938.5 320.8 L 950.2 325.9 L 961.8 331.4 L 973.4 337.5 L 985.1 344.1 L 996.8 351.2 L 1008.5 358.8 L 1020.4 367.1 L 1032.5 375.8 L 1044.7 385.2 L 1057.1 395.2 L 1069.7 405.8 L 1082.7 417.0 L 1096.2 429.6 L 1110.5 443.8 L 1125.4 459.6 L 1140.9 476.7 L 1156.8 494.9 L 1172.9 514.0 L 1189.3 533.7 L 1205.7 554.0 L 1222.0 574.5 L 1238.2 595.0 L 1254.0 615.4 L 1269.4 635.5 L 1284.3 655.0 L 1298.5 673.6 L 1311.9 691.3 L 1324.5 707.8 L 1336.0 722.9 L 1346.3 736.3 L 1355.4 747.9 L 1363.1 757.5" stroke="#EBD0A6" stroke-width="2" opacity="0.85" stroke-linecap="round"/><circle cx="-60" cy="690" r="3" fill="#B5781C" opacity="0.85"/><circle cx="58" cy="625" r="3" fill="#B5781C" opacity="0.85"/><circle cx="218" cy="537" r="3" fill="#B5781C" opacity="0.85"/><circle cx="360" cy="459" r="3" fill="#B5781C" opacity="0.85"/><circle cx="500" cy="385" r="3" fill="#B5781C" opacity="0.85"/><circle cx="633" cy="334" r="3" fill="#B5781C" opacity="0.85"/><circle cx="760" cy="302" r="3" fill="#B5781C" opacity="0.85"/><circle cx="878" cy="306" r="3" fill="#B5781C" opacity="0.85"/><circle cx="983" cy="348" r="3" fill="#B5781C" opacity="0.85"/><circle cx="1093" cy="432" r="3" fill="#B5781C" opacity="0.85"/><circle cx="1235" cy="598" r="3" fill="#B5781C" opacity="0.85"/><circle cx="1352" cy="750" r="3" fill="#B5781C" opacity="0.85"/><text x="42" y="620" transform="rotate(-29.0 42 620)" font-family="Inter,sans-serif" font-size="15" fill="#7A2A22" opacity="0.40" font-weight="600">p < .05</text><text x="312" y="472" transform="rotate(-29.2 312 472)" font-family="Inter,sans-serif" font-size="15" fill="#7A2A22" opacity="0.40" font-weight="600">z = 1.96</text><text x="560" y="346" transform="rotate(-20.8 560 346)" font-family="Inter,sans-serif" font-size="15" fill="#7A2A22" opacity="0.40" font-weight="600">+2.1%</text><text x="774" y="286" transform="rotate(-5.8 774 286)" font-family="Inter,sans-serif" font-size="15" fill="#7A2A22" opacity="0.40" font-weight="600">σ</text><text x="960" y="321" transform="rotate(26.6 960 321)" font-family="Inter,sans-serif" font-size="15" fill="#7A2A22" opacity="0.40" font-weight="600">95% CI</text><text x="1154" y="484" transform="rotate(49.3 1154 484)" font-family="Inter,sans-serif" font-size="15" fill="#7A2A22" opacity="0.40" font-weight="600">n = 12k</text><text x="1343" y="725" transform="rotate(52.2 1343 725)" font-family="Inter,sans-serif" font-size="15" fill="#7A2A22" opacity="0.40" font-weight="600">Δ</text></svg>
