<svg width="112" height="32" fill="white" viewBox="0 0 112 32" xmlns="http://www.w3.org/2000/svg"><path fill-rule="evenodd" clip-rule="evenodd" d="M57.8866 23.4432C57.8866 24.2077 57.2556 24.8332 56.4843 24.8332H49.066C48.9959 24.8332 48.9398 24.8332 48.8837 24.8193C48.8276 24.8193 48.7715 24.8332 48.7294 24.8332C47.9581 24.8332 47.3271 24.2077 47.3271 23.4432V8.38996C47.3271 7.62548 47.9581 7 48.7294 7C48.7855 7 48.8416 7 48.8837 7.0139C48.9398 7.0139 49.0099 7 49.066 7H56.4843C57.2556 7 57.8866 7.62548 57.8866 8.38996C57.8866 9.15444 57.2556 9.77992 56.4843 9.77992H50.1177V14.5753H55.5167C56.288 14.5753 56.919 15.2008 56.919 15.9653C56.919 16.7297 56.288 17.3552 55.5167 17.3552H50.1177V22.0533H56.4843C57.2556 22.0533 57.8866 22.6788 57.8866 23.4432Z"></path><path fill-rule="evenodd" clip-rule="evenodd" d="M45.5041 22.9846L39.1936 7.91737C38.9552 7.34749 38.3943 7.0278 37.8053 7.0556C37.2163 7.0139 36.6554 7.34749 36.417 7.91737L30.1065 22.9846C29.812 23.6934 30.1486 24.5135 30.8638 24.8054C31.579 25.0973 32.4063 24.7637 32.7008 24.0548L34.3416 20.1212C34.4117 20.1351 34.4818 20.1351 34.5519 20.1351H41.0587C41.1288 20.1351 41.1849 20.1351 41.255 20.1212L42.8957 24.0548C43.1902 24.7637 44.0176 25.0973 44.7328 24.8054C45.462 24.4996 45.7986 23.6934 45.5041 22.9846ZM35.5195 17.3552L37.8193 11.8649L40.1191 17.3552H35.5195Z"></path><path d="M64.2812 24.9305C60.7894 24.9305 59.2469 21.956 58.9243 20.3992C58.7701 19.6487 59.2469 18.912 60.0182 18.7591C60.7754 18.6062 61.5186 19.0788 61.6729 19.8432C61.729 20.0656 62.2619 22.1645 64.2812 22.1645C65.8659 22.1645 66.4548 20.1768 66.4548 20.1629L66.4689 20.1212V8.44556C66.4689 7.68108 67.0999 7.0556 67.8712 7.0556C68.6425 7.0556 69.2735 7.68108 69.2735 8.44556V20.2046C69.2735 20.4409 69.2314 20.6355 69.2034 20.7467L69.1894 20.7745C68.8107 22.3869 67.142 24.9305 64.2812 24.9305Z"></path><path fill-rule="evenodd" clip-rule="evenodd" d="M82.259 19.9822C82.259 22.7761 79.9312 25 77.1125 25C74.2938 25 71.966 22.7761 71.966 19.9822C71.966 19.9266 71.966 19.871 71.98 19.8293C71.98 19.8154 71.98 19.7876 71.98 19.7737V13.6857C71.98 12.9212 72.611 12.2958 73.3823 12.2958C74.1536 12.2958 74.7846 12.9212 74.7846 13.6857V19.7737C74.7846 19.8293 74.7846 19.8849 74.7706 19.9266C74.7706 19.9405 74.7706 19.9683 74.7706 19.9822C74.7706 21.1915 75.7943 22.2201 77.1125 22.2201C78.4307 22.2201 79.4544 21.1915 79.4544 19.9822V19.9683C79.4404 19.8988 79.4404 19.8293 79.4404 19.7598V13.6718C79.4404 12.9073 80.0714 12.2819 80.8427 12.2819C81.614 12.2819 82.245 12.9073 82.245 13.6718V19.7737C82.245 19.8432 82.259 19.9127 82.259 19.9822Z"></path><path fill-rule="evenodd" clip-rule="evenodd" d="M95.9598 22.1228C94.0947 22.1228 92.5661 20.6077 92.5661 18.6896C92.5661 16.7853 94.1087 15.2564 95.9598 15.2564C96.5908 15.2564 97.1798 15.4232 97.6846 15.729C98.3437 16.132 99.2132 15.9097 99.6058 15.2564C100.012 14.6031 99.7881 13.7413 99.129 13.3521C98.2035 12.7961 97.1097 12.4764 95.9598 12.4764C92.5241 12.4764 89.7615 15.2703 89.7615 18.6896C89.7615 22.095 92.5241 24.9027 95.9598 24.9027C97.1658 24.9027 98.3017 24.5552 99.2693 23.9436C99.9284 23.5266 100.111 22.6788 99.704 22.0255C99.2833 21.3722 98.4279 21.1915 97.7688 21.5946C97.2359 21.9282 96.6189 22.1228 95.9598 22.1228Z"></path><path d="M106.856 24.9861C105.496 24.9861 104.219 24.5274 103.154 23.6378C101.807 22.512 100.98 20.8162 100.826 19.0788C100.798 18.9537 100.77 18.8425 100.77 18.7035C100.77 18.6201 100.784 18.5367 100.798 18.4672C100.798 17.8417 100.882 17.2162 101.064 16.6046C101.765 14.3112 103.687 12.8239 106.365 12.5042L106.449 12.4903H106.547C108.931 12.4903 111.105 14.1027 111.848 16.41C112.143 17.2579 112.002 18.217 111.484 18.9537C110.965 19.6764 110.179 20.0934 109.296 20.0934H103.967C104.205 20.6494 104.556 21.1498 104.991 21.5112C106 22.3591 107.333 22.4286 108.819 21.7058C109.52 21.3722 110.362 21.6502 110.698 22.3452C111.035 23.0402 110.754 23.8741 110.053 24.2077C108.959 24.722 107.88 24.9861 106.856 24.9861ZM103.771 17.2996H109.17L109.156 17.2579C108.791 16.1181 107.725 15.2842 106.589 15.2564C105.131 15.4649 104.163 16.1598 103.771 17.2996Z"></path><path fill-rule="evenodd" clip-rule="evenodd" d="M86.3538 24.861C87.1251 24.861 87.7562 24.2355 87.7562 23.471V13.8664C87.7562 13.1019 87.1251 12.4764 86.3538 12.4764C85.5826 12.4764 84.9515 13.1019 84.9515 13.8664V23.471C84.9515 24.2355 85.5685 24.861 86.3538 24.861Z"></path><path d="M84.9655 9.76602C84.9655 10.5166 85.5685 11.1143 86.3258 11.1143C87.083 11.1143 87.686 10.5166 87.686 9.76602C87.686 9.01544 87.083 8.41776 86.3258 8.41776C85.5685 8.41776 84.9655 9.01544 84.9655 9.76602Z"></path><path d="M0.99776 0.599962C0.665173 1.16319 0.862262 1.89784 1.44121 2.22843L8.01904 5.99962V19.0763C8.01904 19.7375 8.56103 20.264 9.21388 20.264C9.86674 20.264 10.4087 19.7375 10.4087 19.0763V14.644L19.1545 19.6641L2.42665 29.2757V10.0769L6.81187 12.5992V9.81978L2.99328 7.62809C2.36506 7.26076 1.6383 7.26076 0.99776 7.62809C0.357223 7.99541 0 8.61986 0 9.34226V30.0103C0 30.7327 0.357223 31.3694 0.99776 31.7245C1.62598 32.0918 2.35274 32.0918 2.99328 31.7245L21.0022 21.3905C21.6305 21.0231 22 20.3987 22 19.6763C22 18.9539 21.6428 18.3294 21.0022 17.9621L10.4087 11.8768V4.62828L2.63606 0.159173C2.45129 0.0489764 2.24188 0 2.04479 0C1.62598 0 1.21948 0.20815 0.99776 0.599962Z"></path></svg>
