<?xml version="1.0" encoding="utf-8"?>
<!-- Generator: Adobe Illustrator 19.0.0, SVG Export Plug-In . SVG Version: 6.00 Build 0)  -->
<svg version="1.1" id="layer" xmlns="http://www.w3.org/2000/svg" xmlns:xlink="http://www.w3.org/1999/xlink" x="0px" y="0px"
	 viewBox="-132 208 601 134" xml:space="preserve">
<path d="M317.3,341.4l-11.1-12.5l10.1-11.5h-3.8l-10.6,12.5v-12.5H299v24.1h2.9v-8.2l2.4-2.9l9.1,10.6h3.8
	C317.3,340.9,317.3,341.4,317.3,341.4z M431.8,274h-15.4v-55.8h15.4c17.8,0,27.4,12.5,27.4,27.9C459.2,261.5,449.1,274,431.8,274z
	 M187.8,281.7v-63.5h22.6V210h-54.4v8.2h22.6v64h9.1C187.8,282.2,187.8,281.7,187.8,281.7z M-104.2,283.2
	c19.2,0,26.5-10.6,26.5-21.2c0-26.9-42.3-17.3-42.3-33.7c0-6.7,6.3-11.5,14.9-11.5c7.7,0,15.4,2.9,20.7,8.7l5.3-6.7
	c-6.3-6.3-14.4-10.1-25.5-10.1c-14,0-24.5,8.2-24.5,19.7c0,25.5,42.3,15.4,42.3,33.7c0,5.3-3.8,12.5-16.8,12.5
	c-10.1,0-17.8-4.8-22.6-10.1l-5.3,7.2C-125.9,278.4-116.7,283.2-104.2,283.2z M-28.2,283.2c12.5,0,21.2-6.3,27.4-14.4l-7.7-4.3
	C-12.3,270.7-20,275-28.2,275c-15.9,0-27.4-12-27.4-29.4s12-29.4,27.4-29.4c8.2,0,15.4,4.3,19.7,10.6l7.7-4.3
	c-5.8-8.2-14.4-14.4-27.4-14.4c-20.7,0-37,14.9-37,37C-64.8,268.3-48.9,283.2-28.2,283.2z M61.8,281.7v-8.2h-38V249h37.5v-7.7H23.8
	v-23.1h38V210H14.6v71.7H61.8z M141.2,281.7V210H132v55.8L91.1,210H82v71.7h9.1v-57.3l41.9,57.3C133,281.7,141.2,281.7,141.2,281.7z
	 M256.2,274H234v-25h22.1c8.7,0,13.5,5.8,13.5,12.5C269.6,269.2,264.3,274,256.2,274z M255.7,241.3H234v-23.1h21.7
	c8.2,0,12.5,5.3,12.5,11.5C268.2,236,263.9,241.3,255.7,241.3z M258.1,281.7c13,0,20.7-7.7,20.7-19.2c0-8.7-6.3-16.4-14-17.8
	c7.5-1.8,12.7-8.6,12.5-16.4c0-10.6-7.7-18.3-20.2-18.3h-31.8v71.7C225.4,281.7,258.1,281.7,258.1,281.7z M309.6,281.7V210h-9.1
	v71.7C300.4,281.7,309.6,281.7,309.6,281.7z M363.9,245.6h-18.8v-27.4h18.8c8.7,0,14.4,5.8,14.4,13.5
	C378.4,239.9,372.1,245.6,363.9,245.6z M388,281.7l-19.2-29.4c9.6-1,18.8-8.2,18.8-20.7c0-13.5-9.1-21.7-22.6-21.7H336v71.7h9.1
	v-28.4h14.4l18.3,28.4C377.9,281.7,388,281.7,388,281.7z M431.8,281.7c22.1,0,36.6-15.4,36.6-35.6S453.9,210,431.8,210h-24.5v71.7
	H431.8z M360.6,323.6c3.4,0,5.8,2.4,5.8,5.8c0,3.4-2.4,5.8-5.8,5.8s-5.8-2.4-5.8-5.8C354.8,326.5,357.2,323.6,360.6,323.6z
	 M-29.2,323.6c3.4,0,5.8,2.4,5.8,5.8c0,3.4-2.4,5.8-5.8,5.8s-5.8-2.4-5.8-5.8C-34.9,326.5-32.1,323.6-29.2,323.6z M39.2,341.4v-24.1
	h-2.9v18.8l-14-18.8h-2.9v24.1h2.9v-19.2l14,19.2C36.3,341.4,39.2,341.4,39.2,341.4z M81,341.4v-2.9H68.5v-8.2H81v-2.9H68.5v-7.7H81
	v-2.9H65.1v24.1H81V341.4z M127.7,341.4l6.7-24.1h-3.4l-5.3,19.7l-5.3-19.7h-2.4l-5.3,19.7l-5.3-19.7h-3.4l6.7,24.1h2.9l5.3-19.2
	l5.3,19.2H127.7z M178.2,341.4v-10.1l9.6-14h-3.4l-8.2,11.1l-7.2-11.1h-3.4l9.6,14v10.1C175.3,341.4,178.2,341.4,178.2,341.4z
	 M220.6,339.5c-5.3,0-8.7-4.3-8.7-9.6c0-5.8,3.4-9.6,8.7-9.6c5.3,0,8.7,4.3,8.7,9.6C229.2,335.1,225.8,339.5,220.6,339.5z
	 M220.6,341.9c7.2,0,12-5.3,12-12.5s-4.8-12.5-12-12.5c-7.2,0-12,5.3-12,12.5S213.3,341.9,220.6,341.9z M266.7,329.4h-6.3v-9.1h6.3
	c2.9,0,4.8,1.9,4.8,4.3C271.1,327.4,269.2,329.4,266.7,329.4z M274.4,341.4l-6.3-9.6c3.4-0.5,6.3-2.9,6.3-6.7c0-4.3-2.9-7.2-7.7-7.2
	h-9.6v24.1h2.9v-9.6h4.8l6.3,9.6h3.4V341.4z"/>
</svg>
